<?xml version='1.0' encoding='utf-8'?>
<svg xmlns="http://www.w3.org/2000/svg" width="210mm" height="297mm" version="1.1" viewBox="0 0 210 297"> <defs> <filter id="a" x="-.028649" y="-.022894" width="1.0573" height="1.0458" color-interpolation-filters="sRGB"> <feGaussianBlur stdDeviation="1.6567426"/> </filter> </defs> <circle cx="104.06" cy="141.35" r="98.499" fill="#fca"/> <g transform="rotate(-3.3967 199.57 123.77)" stroke-width="0"> <g transform="matrix(.65517 0 0 .65517 181.81 47.402)" fill="#803300" filter="url(#a)" opacity=".1432"> <path d="m-177.26 213.38c-2.4484-2.5627-5.5673-9.5853-6.7656-15.233-1.2667-5.9707-0.89181-20.65 0.71469-27.982 3.4222-15.619 11.64-33.491 24.14-52.5 22.36-34.003 45.787-55.015 69.133-62.006 4.7912-1.4347 7.1875-1.762 13.043-1.7818 6.9031-0.02328 12.489 1.0543 12.294 2.3716-0.0441 0.29743-7.0837 10.61-15.643 22.916-13.004 18.696-15.744 22.28-16.662 21.796-1.8385-0.96936-5.6622-0.65011-8.2939 0.69247-8.1585 4.1622-26.566 28.55-36.631 48.532-4.0029 7.9469-4.8015 10.077-5.0462 13.46-0.24169 3.3413-0.0614 4.3292 1.0693 5.8585l1.36 1.8395-14.688 21.095c-8.0783 11.602-15.051 21.466-15.495 21.919-0.64778 0.66169-1.1466 0.46872-2.5291-0.97826z"/> <path d="m-78.623 112.95c-0.53804-0.20555-3.8454-2.4008-7.3498-4.8783l-6.3715-4.5046 4.415-6.3548c2.4282-3.4951 9.5423-13.719 15.809-22.72l11.394-16.365 5.5625 3.8622c3.0594 2.1242 6.3696 4.6132 7.356 5.531 3.4687 3.2275 3.0882 4.0647-11.261 24.779-7.1801 10.365-13.857 19.357-14.837 19.983-1.8224 1.1635-2.9881 1.3286-4.7171 0.66803z"/> <path d="m-164.48 222.82c-3.8286-2.6048-6.9238-5.026-6.8781-5.3804 0.0456-0.35449 6.867-10.405 15.159-22.335 9.6336-13.861 15.351-21.531 15.838-21.247 3.5982 2.0931 12.971 9.0523 13.485 10.012 1.5779 2.9484 0.72656 4.5584-12.382 23.416-12.44 17.896-14.469 20.27-17.32 20.27-0.51698 0-4.0725-2.1312-7.9011-4.7359z"/> </g> <g transform="matrix(.65517 0 0 .65517 176.8 43.506)"> <path d="m-177.26 213.38c-2.4484-2.5627-5.5673-9.5853-6.7656-15.233-1.2667-5.9707-0.89181-20.65 0.71469-27.982 3.4222-15.619 11.64-33.491 24.14-52.5 22.36-34.003 45.787-55.015 69.133-62.006 4.7912-1.4347 7.1875-1.762 13.043-1.7818 6.9031-0.02328 12.489 1.0543 12.294 2.3716-0.0441 0.29743-7.0837 10.61-15.643 22.916-13.004 18.696-15.744 22.28-16.662 21.796-1.8385-0.96936-5.6622-0.65011-8.2939 0.69247-8.1585 4.1622-26.566 28.55-36.631 48.532-4.0029 7.9469-4.8015 10.077-5.0462 13.46-0.24169 3.3413-0.0614 4.3292 1.0693 5.8585l1.36 1.8395-14.688 21.095c-8.0783 11.602-15.051 21.466-15.495 21.919-0.64778 0.66169-1.1466 0.46872-2.5291-0.97826z" fill="#f95"/> <path d="m-78.623 112.95c-0.53804-0.20555-3.8454-2.4008-7.3498-4.8783l-6.3715-4.5046 4.415-6.3548c2.4282-3.4951 9.5423-13.719 15.809-22.72l11.394-16.365 5.5625 3.8622c3.0594 2.1242 6.3696 4.6132 7.356 5.531 3.4687 3.2275 3.0882 4.0647-11.261 24.779-7.1801 10.365-13.857 19.357-14.837 19.983-1.8224 1.1635-2.9881 1.3286-4.7171 0.66803z" fill="#d45500"/> <path d="m-164.48 222.82c-3.8286-2.6048-6.9238-5.026-6.8781-5.3804 0.0456-0.35449 6.867-10.405 15.159-22.335 9.6336-13.861 15.351-21.531 15.838-21.247 3.5982 2.0931 12.971 9.0523 13.485 10.012 1.5779 2.9484 0.72656 4.5584-12.382 23.416-12.44 17.896-14.469 20.27-17.32 20.27-0.51698 0-4.0725-2.1312-7.9011-4.7359z" fill="#d45500"/> </g> </g> </svg>